<?xml version="1.0" standalone="no"?>
<!DOCTYPE svg PUBLIC "-//W3C//DTD SVG 20010904//EN"
 "http://www.w3.org/TR/2001/REC-SVG-20010904/DTD/svg10.dtd">
<svg version="1.0" xmlns="http://www.w3.org/2000/svg"
 width="756.000000pt" height="756.000000pt" viewBox="0 0 756.000000 756.000000"
 preserveAspectRatio="xMidYMid meet">
<metadata>
Created by potrace 1.14, written by Peter Selinger 2001-2017
</metadata>
<g transform="translate(0.000000,756.000000) scale(0.100000,-0.100000)"
fill="#000000" stroke="none">
<path d="M3729 7551 c-14 -5 -102 -52 -195 -106 -93 -54 -184 -106 -201 -116
-18 -11 -48 -27 -65 -38 -141 -81 -231 -131 -239 -131 -5 0 -9 -4 -9 -10 0 -5
-7 -10 -15 -10 -8 0 -15 -3 -15 -8 0 -4 -15 -13 -32 -21 -18 -8 -50 -25 -71
-38 -21 -13 -54 -33 -73 -44 -20 -11 -95 -54 -167 -96 -73 -42 -143 -83 -157
-90 -14 -8 -47 -28 -75 -44 -27 -17 -58 -33 -67 -36 -10 -3 -18 -9 -18 -14 0
-5 -4 -9 -9 -9 -10 0 -334 -186 -376 -217 -17 -11 -41 -41 -53 -66 l-22 -45 2
-1034 3 -1035 -30 -14 c-16 -7 -122 -67 -235 -132 -247 -144 -260 -152 -330
-190 -30 -17 -57 -33 -60 -36 -3 -3 -21 -14 -40 -23 -19 -10 -42 -22 -50 -28
-24 -15 -144 -86 -160 -94 -8 -4 -24 -12 -35 -19 -52 -32 -371 -215 -413 -237
-26 -14 -49 -28 -52 -31 -3 -3 -32 -20 -65 -38 -33 -18 -64 -36 -70 -41 -5 -4
-36 -22 -68 -39 -32 -18 -79 -45 -105 -62 -26 -16 -54 -32 -62 -35 -8 -3 -28
-24 -45 -47 l-30 -42 -3 -1035 c-2 -696 0 -1047 7 -1071 6 -20 20 -46 30 -58
11 -13 21 -26 23 -29 2 -4 17 -14 33 -23 17 -9 75 -42 130 -74 55 -32 114 -66
130 -75 17 -10 71 -41 120 -70 50 -29 110 -64 135 -78 38 -21 393 -227 510
-295 19 -11 49 -28 66 -37 16 -9 43 -25 60 -37 16 -11 31 -20 34 -20 3 0 16
-6 30 -15 62 -39 152 -88 161 -88 5 0 9 -4 9 -10 0 -5 4 -10 10 -10 5 0 47
-22 92 -49 253 -149 266 -155 329 -155 54 0 66 6 345 166 159 92 294 170 300
175 5 4 26 16 45 26 65 35 94 52 99 57 3 3 21 13 40 24 45 24 61 33 278 159
101 59 188 107 193 107 5 0 9 3 9 8 0 4 15 13 33 21 17 8 34 17 37 20 8 10 83
51 113 62 15 6 27 15 27 20 0 5 4 9 9 9 5 0 70 36 146 80 76 44 139 80 142 80
2 0 12 7 20 16 9 8 19 11 22 7 6 -9 86 -58 171 -105 25 -14 96 -55 158 -92 62
-36 133 -77 158 -91 24 -14 65 -37 91 -51 26 -15 87 -51 136 -80 49 -30 93
-54 98 -54 4 0 14 -6 21 -13 7 -7 24 -18 38 -24 14 -7 46 -25 72 -40 63 -38
163 -95 223 -128 28 -15 57 -34 66 -41 8 -8 19 -14 22 -14 4 0 40 -20 80 -43
39 -24 157 -93 260 -152 249 -143 259 -143 450 -27 37 23 69 42 71 42 2 0 108
61 235 135 127 74 233 135 235 135 2 0 34 18 71 41 37 22 83 49 101 60 19 10
49 28 68 38 18 11 44 25 57 33 13 7 26 15 29 18 3 3 30 18 60 34 30 16 62 35
71 42 8 8 20 14 25 14 5 0 25 11 44 23 19 13 60 37 90 54 30 17 106 60 169 97
62 36 116 66 119 66 3 0 13 6 21 14 9 7 43 28 76 46 88 48 117 72 143 120 l22
42 0 1023 c0 562 -3 1037 -6 1055 -6 27 -79 120 -95 120 -3 0 -142 79 -308
175 -166 96 -306 175 -311 175 -6 0 -10 5 -10 10 0 6 -5 10 -10 10 -6 0 -40
18 -76 40 -36 22 -67 40 -69 40 -2 0 -48 26 -102 58 -54 32 -105 61 -113 65
-8 4 -28 16 -45 27 -16 11 -37 23 -45 27 -8 4 -75 42 -149 85 -73 43 -137 78
-142 78 -5 0 -9 4 -9 10 0 5 -3 9 -7 8 -5 -1 -19 5 -33 14 -43 27 -151 88
-156 88 -3 0 -20 10 -36 22 -17 11 -54 33 -82 47 l-51 27 2 1034 2 1035 -22
45 c-20 38 -95 107 -120 109 -4 1 -41 21 -81 46 -41 25 -77 45 -79 45 -3 0
-34 17 -68 38 -35 22 -84 50 -109 64 -25 14 -85 49 -135 78 -49 29 -110 64
-135 78 -25 14 -126 72 -225 130 -99 58 -197 114 -218 126 -21 12 -135 77
-253 146 -237 137 -240 139 -335 192 -68 38 -135 53 -180 39z m251 -210 c230
-133 396 -229 522 -303 64 -37 121 -68 127 -68 6 0 11 -4 11 -10 0 -5 4 -10
10 -10 5 0 39 -18 75 -40 36 -22 69 -40 74 -40 5 0 11 -3 13 -7 2 -5 21 -18
43 -29 91 -49 210 -119 213 -126 2 -4 8 -8 13 -8 12 0 423 -239 426 -248 2 -4
-27 -24 -65 -44 -122 -68 -177 -100 -187 -108 -5 -4 -31 -19 -56 -33 -78 -42
-94 -52 -99 -58 -3 -3 -20 -11 -37 -18 -18 -8 -33 -17 -33 -22 0 -5 -4 -9 -10
-9 -5 0 -164 -89 -352 -198 -189 -109 -363 -210 -388 -224 -25 -14 -101 -58
-170 -98 -177 -103 -190 -110 -199 -110 -5 0 -20 33 -35 73 -30 82 -52 107
-97 107 -41 0 -69 -33 -99 -119 -23 -67 -25 -70 -45 -57 -11 7 -51 30 -90 51
-38 21 -81 46 -95 55 -14 10 -35 21 -47 24 -13 4 -23 12 -23 17 0 5 -4 9 -9 9
-5 0 -71 36 -147 81 -77 44 -157 91 -179 104 -22 12 -58 32 -80 45 -37 21
-250 143 -287 165 -62 36 -208 121 -233 135 -35 20 -126 73 -193 113 -26 15
-82 46 -124 70 -43 23 -78 44 -78 47 0 5 598 355 746 437 18 10 125 72 238
138 114 66 223 129 244 140 20 11 39 23 40 28 2 4 8 7 13 7 4 0 43 20 85 45
41 25 77 45 79 45 2 0 50 28 107 62 147 87 175 99 207 84 14 -6 91 -49 171
-95z m-1880 -1053 c19 -11 53 -30 75 -41 22 -12 46 -28 53 -34 7 -7 20 -13 28
-13 8 0 14 -4 14 -10 0 -5 4 -10 10 -10 5 0 55 -27 111 -60 55 -33 103 -60
105 -60 2 0 28 -16 58 -35 30 -19 58 -35 61 -35 3 0 22 -11 43 -23 20 -13 57
-35 82 -49 25 -14 133 -76 240 -138 107 -62 209 -121 225 -130 17 -10 70 -40
119 -69 49 -28 93 -51 97 -51 5 0 9 -4 9 -10 0 -5 4 -10 9 -10 15 0 171 -93
171 -102 0 -9 -84 -247 -100 -283 -4 -11 -27 -73 -50 -137 -23 -65 -46 -118
-50 -118 -4 0 -25 8 -46 17 -22 9 -41 17 -44 18 -8 2 -50 20 -105 45 -28 12
-75 32 -105 45 -30 13 -82 35 -115 50 -81 37 -121 37 -150 1 -24 -29 -24 -54
-4 -130 6 -22 12 -48 14 -56 5 -30 18 -95 22 -110 2 -8 6 -24 8 -35 2 -11 19
-90 39 -175 19 -85 37 -166 40 -180 2 -14 12 -54 21 -90 9 -36 18 -79 20 -97
3 -17 9 -43 15 -57 5 -14 8 -26 5 -26 -2 0 1 -15 6 -32 5 -18 12 -46 15 -63 3
-16 9 -46 14 -65 5 -19 12 -52 15 -74 6 -37 -5 -27 -259 228 -153 153 -276
268 -290 272 -48 12 -79 -13 -111 -90 -16 -39 -30 -73 -31 -76 -1 -3 -5 -15
-9 -27 -8 -24 -36 -26 -57 -5 -7 7 -15 12 -19 12 -11 0 -281 161 -298 177 -14
14 -16 116 -16 1002 -1 542 0 990 3 994 2 4 20 -2 40 -14 21 -12 53 -31 72
-41z m3475 -925 c-1 -709 -4 -994 -12 -1008 -6 -11 -51 -43 -99 -70 -48 -28
-108 -63 -133 -78 -25 -15 -58 -32 -73 -38 -16 -6 -28 -15 -28 -20 0 -5 -8 -9
-17 -9 -13 0 -27 24 -52 88 -41 103 -58 125 -106 128 -34 3 -45 -7 -305 -266
-149 -148 -270 -264 -270 -257 0 6 7 41 16 77 9 36 18 76 20 90 3 14 10 45 15
70 6 25 13 56 15 70 3 14 7 33 10 42 3 9 6 25 8 35 2 10 16 72 31 138 26 117
31 138 39 180 2 11 11 50 20 86 8 37 17 78 20 90 3 13 12 56 21 94 8 39 17 79
19 90 2 11 7 31 10 45 16 68 15 80 -9 106 -14 15 -36 27 -52 27 -25 1 -224
-78 -411 -164 -63 -29 -112 -45 -112 -37 0 2 -30 85 -66 184 -36 98 -67 184
-68 189 -2 6 -6 17 -9 25 -22 55 -47 127 -47 138 0 7 8 15 18 19 9 3 28 14 42
23 14 9 50 31 80 47 30 17 138 79 240 138 102 59 205 119 230 133 25 14 77 44
115 67 39 22 77 44 85 48 8 4 24 13 35 20 11 7 63 37 115 67 52 30 104 60 115
67 11 7 27 16 35 20 8 4 49 27 90 51 74 44 103 61 178 103 20 12 73 42 117 68
115 66 119 69 125 70 3 1 5 -443 5 -986z m-3496 -1202 c64 -38 144 -84 178
-103 47 -25 60 -37 53 -48 -5 -8 -6 -18 -4 -22 3 -4 2 -8 -2 -8 -8 0 -257 70
-382 107 -113 33 -131 36 -164 22 -56 -23 -60 -58 -18 -155 17 -38 35 -78 39
-89 24 -56 42 -97 71 -165 18 -41 39 -91 47 -110 8 -19 19 -43 24 -52 5 -10 9
-20 9 -23 0 -2 -63 -52 -140 -110 -184 -139 -195 -165 -99 -246 29 -24 64 -56
80 -71 16 -15 35 -30 43 -35 8 -4 32 -24 53 -43 21 -19 79 -69 128 -110 50
-41 92 -77 95 -80 3 -3 48 -41 100 -85 52 -44 97 -82 100 -85 5 -5 84 -71 123
-101 19 -16 18 -17 -39 -50 -33 -19 -67 -38 -76 -44 -9 -5 -29 -17 -45 -26
-93 -52 -132 -75 -163 -94 -116 -71 -169 -95 -182 -83 -7 7 -31 22 -53 34 -22
11 -96 54 -165 94 -69 40 -143 83 -165 95 -22 13 -123 71 -225 131 -102 59
-203 117 -225 129 -22 13 -122 70 -223 129 -101 58 -187 106 -193 106 -5 0 -9
3 -9 8 0 4 -13 13 -30 20 -16 7 -45 24 -65 37 -19 14 -35 21 -35 17 0 -4 -4
-2 -8 3 -4 6 -28 22 -55 35 -26 14 -47 28 -47 32 0 5 -5 8 -11 8 -5 0 -53 25
-105 56 -106 62 -106 60 -19 109 127 70 350 199 355 205 3 3 34 21 70 39 36
19 72 40 81 47 8 8 19 14 22 14 4 0 24 11 45 23 20 13 57 35 82 49 40 23 117
67 275 160 28 16 62 34 78 41 15 6 27 14 27 17 0 4 23 17 50 30 28 13 50 27
50 32 0 4 4 8 10 8 9 0 310 170 320 180 3 3 21 14 40 24 19 10 57 30 84 46 31
18 59 26 74 24 14 -3 78 -36 141 -73z m3679 14 c56 -31 105 -61 108 -66 3 -5
10 -7 15 -4 5 4 9 1 9 -4 0 -6 4 -11 10 -11 5 0 33 -14 62 -31 62 -37 113 -67
148 -86 14 -8 41 -23 60 -35 48 -28 1062 -614 1129 -652 30 -17 53 -35 52 -41
-1 -5 -17 -19 -36 -30 -98 -57 -573 -332 -590 -341 -11 -6 -74 -42 -140 -81
-128 -75 -496 -287 -557 -321 -41 -23 -103 -60 -133 -80 -11 -6 -29 -16 -40
-22 -11 -5 -42 -23 -70 -40 -27 -16 -63 -37 -80 -46 -16 -8 -41 -21 -54 -29
-22 -12 -28 -11 -50 4 -14 10 -33 21 -41 24 -8 4 -33 18 -55 32 -22 14 -52 30
-67 36 -16 6 -28 15 -28 19 0 5 -6 10 -13 12 -28 7 -257 143 -256 153 0 6 25
30 56 55 30 25 61 50 67 55 6 6 70 60 141 120 72 60 135 114 141 120 6 5 32
28 59 50 116 97 243 204 284 241 25 23 35 40 36 65 3 41 -9 55 -100 122 -38
29 -77 57 -85 64 -63 51 -94 73 -102 73 -9 0 0 48 12 65 11 15 90 203 90 215
0 5 5 10 10 10 6 0 10 7 10 16 0 9 6 30 14 47 87 191 89 200 51 241 -30 32
-54 32 -170 -2 -264 -77 -389 -111 -396 -106 -17 10 -8 42 16 58 14 9 25 14
25 10 0 -4 7 -1 15 6 42 35 303 177 321 175 11 -1 66 -28 122 -60z m-5549
-1072 c36 -20 111 -63 166 -95 124 -73 103 -61 385 -223 129 -75 242 -140 250
-145 23 -14 201 -115 242 -138 20 -12 54 -32 75 -45 21 -13 59 -34 86 -47 26
-13 47 -27 47 -32 0 -4 5 -8 11 -8 6 0 64 -31 130 -70 66 -38 124 -70 130 -70
5 0 9 -4 9 -10 0 -5 6 -10 14 -10 7 0 19 -7 26 -15 7 -8 16 -12 21 -9 5 3 9 2
9 -3 0 -4 14 -14 30 -21 l30 -14 0 -1005 0 -1005 -42 25 c-24 14 -59 34 -78
45 -53 30 -402 231 -515 297 -177 102 -358 207 -389 225 -17 9 -143 82 -281
162 -137 80 -271 156 -296 170 -25 14 -56 32 -70 39 -23 14 -58 46 -60 58 -4
17 -4 1981 0 1981 2 0 34 -17 70 -37z m7216 -947 c1 -663 -3 -985 -10 -1002
-6 -15 -33 -39 -60 -55 -28 -16 -86 -49 -130 -74 -44 -26 -94 -54 -111 -65
-39 -23 -286 -166 -334 -193 -34 -19 -177 -101 -212 -122 -9 -5 -45 -26 -80
-46 -95 -54 -108 -62 -448 -259 -173 -100 -323 -186 -332 -191 -17 -9 -18 41
-18 993 l0 1003 346 200 c191 110 363 209 383 220 37 21 219 126 274 158 48
29 309 179 337 194 14 8 39 23 55 33 17 10 48 28 70 40 22 12 87 50 145 85 58
35 110 62 115 61 7 -2 10 -337 10 -980z m-4883 286 c2 -4 28 -29 59 -55 56
-46 57 -48 48 -85 -4 -20 -10 -53 -14 -72 -3 -19 -10 -55 -15 -80 -5 -25 -12
-56 -14 -70 -3 -14 -8 -36 -11 -50 -14 -61 -9 -93 18 -116 17 -14 37 -21 54
-20 40 4 152 22 163 26 3 1 8 2 12 1 4 0 31 4 60 10 53 10 78 15 133 23 17 2
46 7 65 11 19 4 46 8 60 10 14 2 39 5 55 8 17 3 50 9 75 13 25 4 47 8 50 9 3
0 27 4 53 9 27 4 59 9 70 12 12 2 32 6 45 8 l22 5 2 -332 c1 -372 1 -353 11
-363 4 -4 7 -15 7 -25 0 -9 4 -19 8 -21 4 -1 18 -17 30 -35 12 -17 47 -44 77
-59 82 -40 77 -51 -55 -128 -52 -30 -100 -59 -106 -63 -5 -4 -26 -16 -45 -26
-66 -36 -94 -52 -99 -57 -3 -3 -16 -11 -30 -18 -14 -6 -52 -28 -85 -47 -33
-20 -68 -39 -77 -42 -10 -3 -18 -9 -18 -14 0 -5 -4 -9 -10 -9 -8 0 -70 -35
-250 -140 -178 -104 -547 -316 -555 -319 -5 -2 -17 -9 -25 -16 -8 -7 -40 -25
-70 -41 -30 -16 -57 -31 -60 -34 -5 -6 -188 -110 -192 -110 -5 0 -3 1999 2
2003 13 12 138 85 215 127 17 9 73 42 127 73 53 31 101 57 107 57 6 0 11 4 11
8 0 9 58 40 77 41 6 1 13 -2 15 -7z m2605 -52 c56 -33 104 -60 106 -60 2 0 55
-30 118 -68 63 -37 125 -73 139 -80 14 -7 34 -20 45 -28 19 -14 20 -30 20
-1010 0 -548 -3 -998 -6 -1000 -3 -1 -22 8 -42 21 -20 14 -38 25 -41 25 -3 0
-54 29 -113 64 -87 51 -436 252 -613 354 -97 55 -440 253 -545 315 -66 38
-145 83 -175 100 -30 17 -73 42 -95 55 -22 14 -42 24 -43 23 -8 -7 -62 54 -62
70 0 9 14 22 33 29 17 8 49 31 69 53 65 70 68 90 68 458 l0 328 23 -4 c90 -16
258 -45 287 -49 34 -6 53 -9 130 -22 47 -8 68 -12 115 -19 22 -4 54 -9 70 -11
17 -3 79 -14 138 -24 59 -10 116 -17 127 -15 59 11 77 44 65 117 -4 24 -8 52
-10 63 -2 11 -4 20 -5 20 -1 0 -3 11 -6 25 -2 14 -9 50 -15 80 -30 150 -32
136 25 183 28 23 55 47 59 54 13 21 25 16 134 -47z"/>
</g>
</svg>
